<?xml version="1.0" encoding="UTF-8" standalone="no"?>
<!DOCTYPE svg PUBLIC "-//W3C//DTD SVG 1.1//EN" "http://www.w3.org/Graphics/SVG/1.1/DTD/svg11.dtd">
<svg width="100%" height="100%" viewBox="0 0 128 128" version="1.1" xmlns="http://www.w3.org/2000/svg" xmlns:xlink="http://www.w3.org/1999/xlink" xml:space="preserve" style="fill-rule:evenodd;clip-rule:evenodd;stroke-linejoin:round;stroke-miterlimit:1.41421;">
    <g transform="matrix(1,0,0,1,0,-136)">
        <g id="Eye" transform="matrix(1,0,0,1,0,136)">
            <rect x="0" y="0" width="128" height="128" style="fill:none;"/>
            <g transform="matrix(1,0,0,1,-132,5.18623)">
                <path d="M190,26C227.227,23.346 251.481,46.578 253,64C254.434,80.451 223.699,107.692 200,108C160.088,108.518 141.686,80.647 141,70C140.314,59.353 150.361,28.826 190,26ZM196,40C217.727,39.289 226.905,51.848 226,64C225.095,76.152 216.53,85.631 200,86C183.47,86.369 174.825,76.262 174,66.899C173.175,57.537 177.935,40.591 196,40Z" style="fill:rgb(92,99,112);"/>
            </g>
            <g transform="matrix(1,0,0,1,-132,5.18623)">
                <path d="M209.711,59.589C210.274,60.906 210.493,62.382 210.494,64C210.498,70.481 207.472,75.862 199.979,75.947C192.485,76.031 187.081,67.583 186.983,64C186.885,60.417 191.806,52.327 197.008,53C199.462,53.318 201.497,53.766 203.176,54.336L200.959,57.662L204.959,63.662L209.711,59.589Z" style="fill:rgb(92,99,112);"/>
            </g>
            <g transform="matrix(0.964667,-0.263472,0.263472,0.964667,-132.998,49.1997)">
                <path d="M141.883,22.145L148.734,30.251L157.139,26.255L153.19,15.672L141.883,22.145Z" style="fill:rgb(92,99,112);"/>
            </g>
            <g transform="matrix(1,0,0,1,-132,5.18623)">
                <path d="M250.91,28.608L243.728,35.558L234.636,29.791L238.49,19.06L250.91,28.608Z" style="fill:rgb(92,99,112);"/>
            </g>
            <g transform="matrix(1,0,0,1,-132,5.18623)">
                <path d="M220.554,15.079L216.357,22.202L207.081,20.644L206.509,10.997L220.554,15.079Z" style="fill:rgb(92,99,112);"/>
            </g>
            <g transform="matrix(0.982871,-0.184293,0.184293,0.982871,-134.291,36.1954)">
                <path d="M172.47,13.02L175.597,21.071L185.957,20.997L185.957,11.391L172.47,13.02Z" style="fill:rgb(92,99,112);"/>
            </g>
        </g>
    </g>
</svg>
