<?xml version="1.0" encoding="UTF-8" standalone="no"?>
<!DOCTYPE svg PUBLIC "-//W3C//DTD SVG 1.1//EN" "http://www.w3.org/Graphics/SVG/1.1/DTD/svg11.dtd">
<svg width="100%" height="100%" viewBox="0 0 128 128" version="1.1" xmlns="http://www.w3.org/2000/svg" xmlns:xlink="http://www.w3.org/1999/xlink" xml:space="preserve" style="fill-rule:evenodd;clip-rule:evenodd;stroke-linejoin:round;stroke-miterlimit:1.41421;">
    <g transform="matrix(1,0,0,1,-136,0)">
        <g id="ghost" transform="matrix(1,0,0,1,136,1.42109e-14)">
            <rect x="0" y="0" width="128" height="128" style="fill:none;"/>
            <g transform="matrix(1,0,0,1,-140.288,-1.42109e-14)">
                <path d="M149.046,113C147.046,105 145.762,80.659 149.046,65C152.454,48.748 149.07,3.352 205.046,5C243.893,6.144 255.447,43.237 257.211,63.436C258.42,77.284 263.046,105 261.046,113C260.023,117.09 253.046,108.333 249.046,109C245.046,109.667 241.712,120.333 237.046,121C232.379,121.667 226.379,112.333 221.046,113C215.712,113.667 210.379,125 205.046,125C199.712,125 194.379,113.667 189.046,113C183.712,112.333 177.712,121.667 173.046,121C168.379,120.333 165.046,109.667 161.046,109C157.046,108.333 150.068,117.09 149.046,113ZM185.584,44.468C191.715,44.468 195.584,48.244 195.584,54.468C195.584,60.869 191.011,64.468 185.584,64.468C178.672,64.468 175.584,59.809 175.584,54.468C175.584,50.394 178.789,44.468 185.584,44.468ZM224.247,48.274C228.662,48.274 232.247,51.858 232.247,56.274C232.247,60.689 228.662,64.274 224.247,64.274C219.831,64.274 216.247,60.689 216.247,56.274C216.247,51.858 219.831,48.274 224.247,48.274Z" style="fill:rgb(92,99,112);"/>
            </g>
        </g>
    </g>
</svg>
