<?xml version="1.0" encoding="UTF-8" standalone="no"?>
<!DOCTYPE svg PUBLIC "-//W3C//DTD SVG 1.1//EN" "http://www.w3.org/Graphics/SVG/1.1/DTD/svg11.dtd">
<svg width="100%" height="100%" viewBox="0 0 128 128" version="1.1" xmlns="http://www.w3.org/2000/svg" xmlns:xlink="http://www.w3.org/1999/xlink" xml:space="preserve" style="fill-rule:evenodd;clip-rule:evenodd;stroke-linejoin:round;stroke-miterlimit:1.41421;">
    <g transform="matrix(1,0,0,1,-272,-136)">
        <g id="loop" transform="matrix(1,0,0,1,272,136)">
            <rect x="0" y="0" width="128" height="128" style="fill:none;"/>
            <g transform="matrix(1,0,0,1,-272,-136)">
                <path d="M368.027,155.254C373.949,156.152 380.439,161.093 384.796,165.548C395.265,176.251 394.665,193.748 390.73,212.637C382.847,250.477 354.432,252.513 326.938,249.373C292.59,245.451 282.307,198.209 288.311,179.296C287.084,177.9 286.053,176.291 285.278,174.494C281.306,165.28 285.561,154.575 294.775,150.602C303.988,146.63 314.694,150.886 318.666,160.099C322.638,169.313 318.383,180.018 309.169,183.99C307.367,184.768 305.507,185.23 303.652,185.402C298.801,199.941 307.127,230.788 328.042,234.54C376.847,243.295 383.331,206.686 378.66,183.38C377.389,177.038 370.311,171.214 366.248,170.696M330.482,163.665L369.669,141.004L363.388,195.519L330.482,163.665Z" style="fill:rgb(92,99,112);"/>
            </g>
        </g>
    </g>
</svg>
