<?xml version="1.0" encoding="UTF-8" standalone="no"?>
<!DOCTYPE svg PUBLIC "-//W3C//DTD SVG 1.1//EN" "http://www.w3.org/Graphics/SVG/1.1/DTD/svg11.dtd">
<svg width="128px" height="128px" version="1.1" xmlns="http://www.w3.org/2000/svg" xmlns:xlink="http://www.w3.org/1999/xlink" xml:space="preserve" style="fill-rule:evenodd;clip-rule:evenodd;stroke-linejoin:round;stroke-miterlimit:1.41421;">
    <rect id="save" x="0" y="0" width="128" height="128" style="fill:none;"/>
    <path d="M120.235,94.514l0.89,23.857l-112.4,2.065l0,-25.003l8.077,0.255l-0.478,17.581l95.762,0.016l-1.907,-18.039l10.056,-0.732Z" style="fill:rgb(92,99,112);"/>
    <path d="M103.902,85.771l1.496,9.661l-83.588,1.47l0.764,-9.906l81.328,-1.225Z" style="fill:rgb(92,99,112);"/>
    <path d="M105.348,100.49l1.525,8.7l-83.718,-0.254l-0.323,-8.033l82.516,-0.413Z" style="fill:rgb(92,99,112);"/>
    <path d="M73.186,15.109l-0.635,28.592l13.478,-1.174l-19.231,29.518l-21.584,-26.074l11.89,-1.496l0.173,-30.119l15.909,0.753Z" style="fill:rgb(92,99,112);"/>
</svg>
