<?xml version="1.0" encoding="UTF-8" standalone="no"?>
<!DOCTYPE svg PUBLIC "-//W3C//DTD SVG 1.1//EN" "http://www.w3.org/Graphics/SVG/1.1/DTD/svg11.dtd">
<svg width="128px" height="128px" version="1.1" xmlns="http://www.w3.org/2000/svg" xmlns:xlink="http://www.w3.org/1999/xlink" xml:space="preserve" style="fill-rule:evenodd;clip-rule:evenodd;stroke-linejoin:round;stroke-miterlimit:1.41421;">
    <rect id="settings" x="0" y="0" width="128" height="128" style="fill:none;"/>
    <path d="M64,26.171c31.835,-1.679 39.427,28.435 39.427,46.468c0,18.033 -14.942,31.772 -39.427,31.772c-24.485,0 -35.434,-14.089 -34.894,-32.527c0.54,-18.437 6.509,-44.216 34.894,-45.713Zm0,17.641c15.716,-0.739 24.763,10.353 24.313,21.445c-0.45,11.092 -12.346,19.76 -22.056,19.76c-9.709,0 -23.01,-8.834 -19.773,-22.142c2.233,-9.179 5.961,-18.52 17.516,-19.063Z" style="fill:rgb(92,99,112);"/>
    <path d="M66.531,15.801l-5.564,13.624l18.241,2.247l-0.302,-13.465l-12.375,-2.406Z" style="fill:rgb(92,99,112);"/>
    <path d="M98.83,29.593l-11.195,5.316l9.397,15.321l8.015,-12.441l-6.217,-8.196Z" style="fill:rgb(92,99,112);"/>
    <path d="M100.057,63.415l0,13.185l13.465,-2.641l-1.686,-8.44l-11.779,-2.104Z" style="fill:rgb(92,99,112);"/>
    <path d="M96.007,88.107l-13.476,9.171l9.79,11.588l9.699,-8.621l-6.013,-12.138Z" style="fill:rgb(92,99,112);"/>
    <path d="M70.662,99.695l-4.945,13.903l-17.443,-1.348l-0.271,-15.242l22.659,2.687Z" style="fill:rgb(92,99,112);"/>
    <path d="M33.123,81.789l8.972,10.298l-14.2,6.868l-5.432,-9.772l10.66,-7.394Z" style="fill:rgb(92,99,112);"/>
    <path d="M36.396,47.821l-3.553,18.144l-12.433,-5.959l2.238,-12.767l13.748,0.582Z" style="fill:rgb(92,99,112);"/>
    <path d="M52.234,32.149l-11.915,7.891l-4.607,-10.462l8.139,-5.284l8.383,7.855Z" style="fill:rgb(92,99,112);"/>
    <path d="M68.177,55.391c6.555,0 9.838,4.206 9.838,9.816c0,5.611 -3.819,8.996 -10.557,8.996c-6.737,0 -9.119,-2.919 -9.119,-8.653c0,-5.734 3.283,-10.159 9.838,-10.159Z" style="fill:rgb(92,99,112);"/>
</svg>
